<svg xmlns="http://www.w3.org/2000/svg" xmlns:xlink="http://www.w3.org/1999/xlink" width="100" height="80.001" viewBox="0 0 100 80.001">
  <defs>
    <clipPath id="clip-path">
      <path id="Tracé_352" data-name="Tracé 352" d="M22.7,6.827,39.609-3h15.75a11.324,11.324,0,0,0,11.062-9.015,10.636,10.636,0,0,0,8.328-10.359v-.734A7.416,7.416,0,0,0,79.717-26.5l20.656-12.031a1.249,1.249,0,0,0,.453-1.7l-1.25-2.172a1.249,1.249,0,0,0-1.7-.453L81-33.016V-35.5A7.5,7.5,0,0,0,73.5-43H51v9.719a5.178,5.178,0,0,1-4.156,5.2A5.014,5.014,0,0,1,41-33.016V-47.75a6.239,6.239,0,0,1,2.937-5.3l5.219-3.266a11.264,11.264,0,0,1,5.953-1.7H71.233L89.749-68.484a1.254,1.254,0,0,0,.469-1.7l-1.25-2.187a1.254,1.254,0,0,0-1.7-.469L69.921-63h-14.8a16.266,16.266,0,0,0-8.609,2.469l-5.234,3.266a11.128,11.128,0,0,0-5.031,7.578l-9.765,5.781A11.358,11.358,0,0,0,21-34.235V-28.2L1.626-17.2a1.254,1.254,0,0,0-.469,1.7l1.25,2.172a1.254,1.254,0,0,0,1.7.469L26-25.3v-8.937a6.328,6.328,0,0,1,3.031-5.375L36-43.734v10.3a10.286,10.286,0,0,0,9,10.39A10.019,10.019,0,0,0,56-33v-5H73.5A2.507,2.507,0,0,1,76-35.5v5A2.507,2.507,0,0,1,73.5-28h-3.75v5.625a5.588,5.588,0,0,1-5.594,5.594H61.64v2.5A6.281,6.281,0,0,1,55.359-8H38.265L20.2,2.515a1.249,1.249,0,0,0-.453,1.7L21,6.374A1.249,1.249,0,0,0,22.7,6.827Z" transform="translate(-0.994 73.006)" fill="#ff4a53"/>
    </clipPath>
    <clipPath id="clip-path-2">
      <path id="Tracé_351" data-name="Tracé 351" d="M-275,347.986H554.981V-292H-275Z" transform="translate(275 292)" fill="#ff4a53"/>
    </clipPath>
  </defs>
  <g id="Groupe_159" data-name="Groupe 159" transform="translate(-0.994 73.006)">
    <g id="Groupe_158" data-name="Groupe 158" transform="translate(0.994 -73.006)" clip-path="url(#clip-path)">
      <g id="Groupe_157" data-name="Groupe 157" transform="translate(-306.653 -243.321)" clip-path="url(#clip-path-2)">
        <path id="Tracé_350" data-name="Tracé 350" d="M-4.006-78.006H107.1V13.105H-4.006Z" transform="translate(305.104 315.772)" fill="#ff4a53"/>
      </g>
    </g>
  </g>
</svg>
