<svg xmlns="http://www.w3.org/2000/svg" xmlns:xlink="http://www.w3.org/1999/xlink" width="24.913" height="24.91" viewBox="0 0 24.913 24.91">
  <defs>
    <clipPath id="clip-path">
      <path id="Tracé_338" data-name="Tracé 338" d="M0-503.841H24.913v24.91H0Z" transform="translate(0 503.841)" fill="none" clip-rule="evenodd"/>
    </clipPath>
    <clipPath id="clip-path-2">
      <path id="Tracé_337" data-name="Tracé 337" d="M0-479.079H24.921V-504H0Z" transform="translate(0 504)" fill="none"/>
    </clipPath>
    <clipPath id="clip-path-3">
      <rect id="Rectangle_4" data-name="Rectangle 4" width="24.921" height="24.921" fill="none"/>
    </clipPath>
    <clipPath id="clip-path-4">
      <path id="Tracé_336" data-name="Tracé 336" d="M12.457-503.841c-3.383,0-3.807.014-5.136.075a9.142,9.142,0,0,0-3.024.579,6.106,6.106,0,0,0-2.206,1.437,6.106,6.106,0,0,0-1.437,2.206,9.142,9.142,0,0,0-.579,3.024C.014-495.192,0-494.767,0-491.384s.014,3.807.075,5.136a9.142,9.142,0,0,0,.579,3.024,6.106,6.106,0,0,0,1.437,2.206A6.107,6.107,0,0,0,4.3-479.582,9.144,9.144,0,0,0,7.321-479c1.329.061,1.753.075,5.136.075s3.807-.014,5.136-.075a9.144,9.144,0,0,0,3.024-.579,6.107,6.107,0,0,0,2.206-1.437,6.107,6.107,0,0,0,1.437-2.206,9.143,9.143,0,0,0,.579-3.024c.061-1.329.075-1.753.075-5.136s-.014-3.807-.075-5.136a9.143,9.143,0,0,0-.579-3.024,6.106,6.106,0,0,0-1.437-2.206,6.106,6.106,0,0,0-2.206-1.437,9.142,9.142,0,0,0-3.024-.579C16.264-503.827,15.839-503.841,12.457-503.841Zm0,2.244c3.326,0,3.72.013,5.033.073a6.891,6.891,0,0,1,2.313.429,3.858,3.858,0,0,1,1.432.932,3.859,3.859,0,0,1,.932,1.432,6.891,6.891,0,0,1,.429,2.313c.06,1.313.073,1.707.073,5.034s-.013,3.72-.073,5.033a6.891,6.891,0,0,1-.429,2.313,3.859,3.859,0,0,1-.932,1.432,3.859,3.859,0,0,1-1.432.932,6.892,6.892,0,0,1-2.313.429c-1.313.06-1.707.073-5.033.073s-3.72-.013-5.034-.073a6.892,6.892,0,0,1-2.313-.429,3.859,3.859,0,0,1-1.432-.932,3.859,3.859,0,0,1-.932-1.432,6.891,6.891,0,0,1-.429-2.313c-.06-1.313-.073-1.707-.073-5.033s.013-3.72.073-5.034a6.891,6.891,0,0,1,.429-2.313,3.859,3.859,0,0,1,.932-1.432A3.858,3.858,0,0,1,5.11-501.1a6.891,6.891,0,0,1,2.313-.429c1.313-.06,1.707-.073,5.034-.073Z" transform="translate(0 503.841)" fill="none" clip-rule="evenodd"/>
    </clipPath>
    <clipPath id="clip-path-6">
      <path id="Tracé_341" data-name="Tracé 341" d="M128.953-370.736a4.152,4.152,0,0,1-4.152-4.152,4.152,4.152,0,0,1,4.152-4.152,4.152,4.152,0,0,1,4.152,4.152A4.152,4.152,0,0,1,128.953-370.736Zm0-10.549a6.4,6.4,0,0,0-6.4,6.4,6.4,6.4,0,0,0,6.4,6.4,6.4,6.4,0,0,0,6.4-6.4,6.4,6.4,0,0,0-6.4-6.4Z" transform="translate(-122.556 381.285)" fill="none" clip-rule="evenodd"/>
    </clipPath>
    <clipPath id="clip-path-8">
      <path id="Tracé_344" data-name="Tracé 344" d="M359.156-415.132a1.5,1.5,0,0,1-1.495,1.495,1.5,1.5,0,0,1-1.495-1.495,1.5,1.5,0,0,1,1.495-1.495,1.5,1.5,0,0,1,1.495,1.495" transform="translate(-356.166 416.627)" fill="none" clip-rule="evenodd"/>
    </clipPath>
  </defs>
  <g id="Icone_instagram" data-name="Icone instagram" transform="translate(0 503.841)">
    <g id="Groupe_18" data-name="Groupe 18" transform="translate(0 -503.841)" clip-path="url(#clip-path)">
      <g id="Groupe_17" data-name="Groupe 17" transform="translate(0 -0.008)" clip-path="url(#clip-path-2)">
        <g id="Groupe_16" data-name="Groupe 16" style="isolation: isolate">
          <g id="Groupe_15" data-name="Groupe 15" clip-path="url(#clip-path-3)">
            <g id="Groupe_14" data-name="Groupe 14" transform="translate(0 0.008)" clip-path="url(#clip-path-4)">
              <g id="Groupe_13" data-name="Groupe 13" transform="translate(0 -0.008)" clip-path="url(#clip-path-2)">
                <path id="Tracé_334" data-name="Tracé 334" d="M-5-508.841H20.407v25.407H-5Z" transform="translate(4.753 508.602)" fill="#0a0a08"/>
              </g>
            </g>
          </g>
        </g>
      </g>
    </g>
    <g id="Groupe_20" data-name="Groupe 20" transform="translate(6.06 -497.781)" clip-path="url(#clip-path-6)">
      <g id="Groupe_19" data-name="Groupe 19" transform="translate(-6.06 -6.068)" clip-path="url(#clip-path-2)">
        <path id="Tracé_339" data-name="Tracé 339" d="M117.556-386.285h13.288V-373H117.556Z" transform="translate(-111.743 392.106)" fill="#0a0a08"/>
      </g>
    </g>
    <g id="Groupe_22" data-name="Groupe 22" transform="translate(17.611 -499.529)" clip-path="url(#clip-path-8)">
      <g id="Groupe_21" data-name="Groupe 21" transform="translate(-17.611 -4.32)" clip-path="url(#clip-path-2)">
        <path id="Tracé_342" data-name="Tracé 342" d="M351.166-421.627h3.484v3.484h-3.484Z" transform="translate(-333.802 425.7)" fill="#0a0a08"/>
      </g>
    </g>
  </g>
</svg>
