<svg xmlns="http://www.w3.org/2000/svg" width="21.305" height="21.305" viewBox="0 0 21.305 21.305">
  <path id="Icone_Linkedin" data-name="Icone Linkedin" d="M111.741,902H93.563A1.559,1.559,0,0,0,92,903.542v18.237a1.545,1.545,0,0,0,1.563,1.526h18.178a1.546,1.546,0,0,0,1.563-1.526V903.542A1.56,1.56,0,0,0,111.741,902ZM98.658,919.843H95.329v-9.587h3.329Zm-1.531-11.185a1.8,1.8,0,1,1,1.8-1.8A1.8,1.8,0,0,1,97.126,908.658Zm13.515,11.185h-3.329v-5.216s0-1.975-1.664-1.975-1.664,2.017-1.664,2.017v5.173h-3.329s.041-8.72,0-9.587h3.329v1.33A2.793,2.793,0,0,1,106.647,910c2.1,0,3.995,1.374,3.995,4.328Z" transform="translate(-92 -902)" fill="#333"/>
</svg>
