<svg xmlns="http://www.w3.org/2000/svg" xmlns:xlink="http://www.w3.org/1999/xlink" width="72" height="72" viewBox="0 0 72 72">
  <defs>
    <clipPath id="clip-path">
      <path id="Tracé_349" data-name="Tracé 349" d="M51.75,0C66,0,72-11.45,72-24.479c-1.548,1.058-6.983,5.435-8.74,5.435a2.415,2.415,0,0,1-2.309-1.579c-2.891-7.62-7.736-10.382-13.209-11.2L70.021-54.107a6.756,6.756,0,0,0,0-9.553l-6.363-6.363A6.74,6.74,0,0,0,58.881-72,6.736,6.736,0,0,0,54.1-70.021L33.781-49.7,22.24-66.959A10.887,10.887,0,0,0,13.146-72C4.039-72-4.984-60.747,3.21-51.743L18.74-34.663,2.685-18.61.049-3.5A2.985,2.985,0,0,0,3.507-.046L18.616-2.7,31.794-15.875C32.639-9.56,36.6,0,51.75,0ZM21.926-37.848,6.54-54.771c-2.087-2.294-2.578-4.736-1.461-7.262A9.433,9.433,0,0,1,13.146-67.5a6.469,6.469,0,0,1,5.41,3.125L30.537-46.457ZM60.367-50.816,50.813-60.37l6.472-6.469a3.168,3.168,0,0,1,3.192,0l6.363,6.362a2.257,2.257,0,0,1,0,3.188ZM4.852-4.852,6.874-16.435,47.631-57.188l9.554,9.554L16.438-6.882Zm46.9.352c-5.524,0-9.638-1.458-12.229-4.334-2.7-3-3.686-7.521-3.338-11.43l2.372-2.372,5.629-5c10.081.648,11.595,6.071,12.559,8.615a6.907,6.907,0,0,0,6.515,4.482,7.135,7.135,0,0,0,2.914-.683C64.427-9.769,60.48-4.5,51.75-4.5Z" fill="#ff4a53"/>
    </clipPath>
    <clipPath id="clip-path-2">
      <path id="Tracé_348" data-name="Tracé 348" d="M-276,285H471V-291H-276Z" fill="#ff4a53"/>
    </clipPath>
  </defs>
  <g id="Groupe_156" data-name="Groupe 156" transform="translate(0 72)">
    <g id="Groupe_155" data-name="Groupe 155" clip-path="url(#clip-path)">
      <g id="Groupe_154" data-name="Groupe 154" clip-path="url(#clip-path-2)">
        <path id="Tracé_347" data-name="Tracé 347" d="M-5-77H77V5H-5Z" fill="#ff4a53"/>
      </g>
    </g>
  </g>
</svg>
