<svg xmlns="http://www.w3.org/2000/svg" xmlns:xlink="http://www.w3.org/1999/xlink" width="70.246" height="80.281" viewBox="0 0 70.246 80.281">
  <defs>
    <clipPath id="clip-path">
      <path id="Tracé_349" data-name="Tracé 349" d="M35.123-31.859a20.069,20.069,0,0,0,20.07-20.07A20.069,20.069,0,0,0,35.123-72a20.069,20.069,0,0,0-20.07,20.07A20.069,20.069,0,0,0,35.123-31.859Zm0-5.018A15.077,15.077,0,0,1,20.07-51.93,15.077,15.077,0,0,1,35.123-66.982,15.077,15.077,0,0,1,50.176-51.93,15.077,15.077,0,0,1,35.123-36.877ZM62.72,8.281A7.528,7.528,0,0,0,70.246.755V-3.259A21.059,21.059,0,0,0,49.533-24.3L43.308-2.695,37.992-18.641l3.92-3.92a2.508,2.508,0,0,0-1.772-4.281H30.105a2.5,2.5,0,0,0-1.772,4.281l3.92,3.92L26.938-2.695,20.713-24.286A21.035,21.035,0,0,0,0-3.259V.755A7.528,7.528,0,0,0,7.526,8.281ZM23.442,3.264H7.526A2.516,2.516,0,0,1,5.018.755V-3.259A16.114,16.114,0,0,1,17.076-18.766Zm39.278,0H46.8l6.35-22.03A16.114,16.114,0,0,1,65.213-3.259V.755h.016A2.516,2.516,0,0,1,62.72,3.264ZM40,3.264H30.247l4.876-14.645Z" transform="translate(0 72)" fill="#ff4a53"/>
    </clipPath>
    <clipPath id="clip-path-2">
      <path id="Tracé_348" data-name="Tracé 348" d="M-276,351.252H556.92V-291H-276Z" transform="translate(276 291)" fill="#ff4a53"/>
    </clipPath>
  </defs>
  <g id="Groupe_156" data-name="Groupe 156" transform="translate(0 72)">
    <g id="Groupe_155" data-name="Groupe 155" transform="translate(0 -72)" clip-path="url(#clip-path)">
      <g id="Groupe_154" data-name="Groupe 154" transform="translate(-307.746 -244.19)" clip-path="url(#clip-path-2)">
        <path id="Tracé_347" data-name="Tracé 347" d="M-5-77H76.4V14.432H-5Z" transform="translate(307.17 315.614)" fill="#ff4a53"/>
      </g>
    </g>
  </g>
</svg>
