<svg xmlns="http://www.w3.org/2000/svg" xmlns:xlink="http://www.w3.org/1999/xlink" width="74.631" height="74.631" viewBox="0 0 74.631 74.631">
  <defs>
    <clipPath id="clip-path">
      <path id="Tracé_2" data-name="Tracé 2" d="M0-248.427H74.631V-173.8H0Z" transform="translate(0 248.427)" fill="#fff"/>
    </clipPath>
  </defs>
  <g id="Logo_blanc" data-name="Logo blanc" clip-path="url(#clip-path)">
    <g id="Groupe_1" data-name="Groupe 1" transform="translate(0 0)">
      <path id="Tracé_1" data-name="Tracé 1" d="M-65.906-142.324a6.35,6.35,0,0,1-6.472-6.537c0-3.17,1.783-8.122,4.094-13.009,2.443-5.085,5.415-10.434,7.065-14.66a9.064,9.064,0,0,0,.594-2.906,2.832,2.832,0,0,0-2.971-3.17c-1.915,0-4.622,1.321-7.066,4.358a14.716,14.716,0,0,0-3.7,8.915c0,2.311.991,3.764,2.179,3.764.33,0,.726-.132.99-.132.595,0,.792.264.792.66,0,1.057-1.849,2.906-4.16,2.906a5.5,5.5,0,0,1-5.217-5.811c0-6.6,10.038-17.433,18.16-17.433,4.887,0,6.472,2.377,6.472,5.217a10.526,10.526,0,0,1-.726,3.7c-3.83,10.235-11.094,21.4-11.094,27.207,0,2.509,1.255,3.632,3.17,3.632,5.415,0,17.169-18.424,18.688-31.1.132-1.255-.264-2.971,1.189-4.887.924-1.189,3.632-3.764,5.283-3.764.859,0,1.453.66,1.453,2.509,0,10.7-15.915,40.546-28.726,40.546m9.014-61.117a37.315,37.315,0,0,0-37.316,37.315A37.316,37.316,0,0,0-56.891-128.81a37.316,37.316,0,0,0,37.316-37.316,37.315,37.315,0,0,0-37.316-37.315" transform="translate(94.207 203.441)" fill="#fff"/>
    </g>
  </g>
</svg>
